<svg xmlns="http://www.w3.org/2000/svg" viewBox="0 0 200 80" fill="none">
  <rect width="200" height="80" rx="8" fill="white"/>
  <!-- N letter -->
  <rect x="10" y="15" width="8" height="50" rx="3" fill="#5fc3ad"/>
  <rect x="10" y="15" width="30" height="8" rx="3" fill="#5fc3ad" transform="rotate(35 10 15)"/>
  <rect x="32" y="15" width="8" height="50" rx="3" fill="#5fc3ad"/>
  <!-- i -->
  <circle cx="58" cy="18" r="5" fill="#756fb3"/>
  <rect x="55" y="27" width="6" height="38" rx="3" fill="#756fb3"/>
  <!-- n -->
  <rect x="68" y="27" width="6" height="38" rx="3" fill="#756fb3"/>
  <path d="M74 35 Q80 27 88 35" stroke="#756fb3" stroke-width="6" fill="none" stroke-linecap="round"/>
  <rect x="88" y="35" width="6" height="30" rx="3" fill="#756fb3"/>
  <!-- M -->
  <rect x="102" y="15" width="7" height="50" rx="3" fill="#f9a870"/>
  <path d="M109 15 L120 40 L131 15" stroke="#f9a870" stroke-width="7" fill="none" stroke-linecap="round" stroke-linejoin="round"/>
  <rect x="124" y="15" width="7" height="50" rx="3" fill="#f9a870"/>
  <!-- a -->
  <path d="M145 35 Q145 27 155 27 Q165 27 165 35 L165 65" stroke="#f05a72" stroke-width="6" fill="none" stroke-linecap="round"/>
  <line x1="145" y1="46" x2="165" y2="46" stroke="#f05a72" stroke-width="6" stroke-linecap="round"/>
  <!-- Hub text -->
  <text x="10" y="78" font-family="Inter, sans-serif" font-size="9" font-weight="600" fill="#6b7280" letter-spacing="3">HUB</text>
</svg>
