<svg xmlns="http://www.w3.org/2000/svg" viewBox="0 0 180 60">
  <!-- N -->
  <rect x="4" y="8" width="7" height="44" rx="3" fill="#5fc3ad"/>
  <line x1="11" y1="8" x2="29" y2="52" stroke="#5fc3ad" stroke-width="7" stroke-linecap="round"/>
  <rect x="22" y="8" width="7" height="44" rx="3" fill="#5fc3ad"/>
  <!-- i dot -->
  <circle cx="44" cy="13" r="4" fill="#756fb3"/>
  <!-- i stem -->
  <rect x="41" y="20" width="7" height="32" rx="3" fill="#756fb3"/>
  <!-- n -->
  <rect x="55" y="20" width="7" height="32" rx="3" fill="#756fb3"/>
  <path d="M62 28 Q62 20 71 20 Q80 20 80 28" stroke="#756fb3" stroke-width="7" fill="none" stroke-linecap="round"/>
  <rect x="73" y="28" width="7" height="24" rx="3" fill="#756fb3"/>
  <!-- M -->
  <rect x="88" y="8" width="7" height="44" rx="3" fill="#f9a870"/>
  <line x1="95" y1="8" x2="106" y2="34" stroke="#f9a870" stroke-width="7" stroke-linecap="round" stroke-linejoin="round"/>
  <line x1="106" y1="34" x2="117" y2="8" stroke="#f9a870" stroke-width="7" stroke-linecap="round" stroke-linejoin="round"/>
  <rect x="110" y="8" width="7" height="44" rx="3" fill="#f9a870"/>
  <!-- a -->
  <path d="M128 28 Q128 20 137 20 Q146 20 146 28 L146 52" stroke="#f05a72" stroke-width="7" fill="none" stroke-linecap="round"/>
  <line x1="128" y1="38" x2="146" y2="38" stroke="#f05a72" stroke-width="6" stroke-linecap="round"/>
  <!-- Hub badge -->
  <rect x="152" y="8" width="26" height="16" rx="8" fill="#5fc3ad"/>
  <text x="165" y="20" font-family="Arial" font-size="9" font-weight="bold" fill="white" text-anchor="middle">Hub</text>
</svg>
